<mxfile host="65bd71144e">
    <diagram id="wglgqwu7wQi_NFX_WYSN" name="door-cli">
        <mxGraphModel dx="529" dy="321" grid="1" gridSize="10" guides="1" tooltips="1" connect="1" arrows="1" fold="1" page="1" pageScale="1" pageWidth="850" pageHeight="1100" math="0" shadow="0">
            <root>
                <mxCell id="0"/>
                <mxCell id="1" parent="0"/>
                <mxCell id="3" value="&amp;lt;/&amp;gt;" style="whiteSpace=wrap;html=1;aspect=fixed;fontSize=90;sketch=1;fillColor=#ffcc99;strokeColor=#36393d;strokeWidth=4;" parent="1" vertex="1">
                    <mxGeometry x="40" y="40" width="200" height="200" as="geometry"/>
                </mxCell>
            </root>
        </mxGraphModel>
    </diagram>
    <diagram id="736bJLQg-CzL0wHpWmIC" name="algorithms-case">
        <mxGraphModel dx="529" dy="321" grid="1" gridSize="10" guides="1" tooltips="1" connect="1" arrows="1" fold="1" page="1" pageScale="1" pageWidth="850" pageHeight="1100" math="0" shadow="0">
            <root>
                <mxCell id="jTegGQPHwCdBl0LHS62r-0"/>
                <mxCell id="jTegGQPHwCdBl0LHS62r-1" parent="jTegGQPHwCdBl0LHS62r-0"/>
                <mxCell id="jTegGQPHwCdBl0LHS62r-2" value="" style="whiteSpace=wrap;html=1;aspect=fixed;fontSize=90;sketch=1;fillColor=#1ba1e2;strokeColor=#006EAF;strokeWidth=4;fontColor=#ffffff;" vertex="1" parent="jTegGQPHwCdBl0LHS62r-1">
                    <mxGeometry x="40" y="40" width="200" height="200" as="geometry"/>
                </mxCell>
                <mxCell id="jTegGQPHwCdBl0LHS62r-7" value="" style="group" vertex="1" connectable="0" parent="jTegGQPHwCdBl0LHS62r-1">
                    <mxGeometry x="82" y="84" width="110" height="110" as="geometry"/>
                </mxCell>
                <mxCell id="jTegGQPHwCdBl0LHS62r-3" value="+" style="ellipse;whiteSpace=wrap;html=1;aspect=fixed;fontSize=41;verticalAlign=bottom;fillColor=#d80073;strokeColor=#A50040;fontColor=#ffffff;" vertex="1" parent="jTegGQPHwCdBl0LHS62r-7">
                    <mxGeometry width="50" height="50" as="geometry"/>
                </mxCell>
                <mxCell id="jTegGQPHwCdBl0LHS62r-4" value="－" style="ellipse;whiteSpace=wrap;html=1;aspect=fixed;fontSize=41;verticalAlign=middle;fillColor=#1ba1e2;strokeColor=#006EAF;fontColor=#ffffff;" vertex="1" parent="jTegGQPHwCdBl0LHS62r-7">
                    <mxGeometry x="60" width="50" height="50" as="geometry"/>
                </mxCell>
                <mxCell id="jTegGQPHwCdBl0LHS62r-5" value="×" style="ellipse;whiteSpace=wrap;html=1;aspect=fixed;fontSize=41;verticalAlign=bottom;fillColor=#008a00;strokeColor=#005700;fontColor=#ffffff;" vertex="1" parent="jTegGQPHwCdBl0LHS62r-7">
                    <mxGeometry y="60" width="50" height="50" as="geometry"/>
                </mxCell>
                <mxCell id="jTegGQPHwCdBl0LHS62r-6" value="÷" style="ellipse;whiteSpace=wrap;html=1;aspect=fixed;fontSize=41;verticalAlign=bottom;fillColor=#6a00ff;strokeColor=#3700CC;fontColor=#ffffff;" vertex="1" parent="jTegGQPHwCdBl0LHS62r-7">
                    <mxGeometry x="60" y="60" width="50" height="50" as="geometry"/>
                </mxCell>
            </root>
        </mxGraphModel>
    </diagram>
    <diagram id="DE5SfZAr9uHQPV7BjtgA" name="promiseAPlus">
        <mxGraphModel dx="529" dy="321" grid="1" gridSize="10" guides="1" tooltips="1" connect="1" arrows="1" fold="1" page="1" pageScale="1" pageWidth="850" pageHeight="1100" background="none" math="0" shadow="0">
            <root>
                <mxCell id="tsy0d7PEiLZ8QUkQVtpS-0"/>
                <mxCell id="tsy0d7PEiLZ8QUkQVtpS-1" parent="tsy0d7PEiLZ8QUkQVtpS-0"/>
                <mxCell id="tsy0d7PEiLZ8QUkQVtpS-2" value="&lt;font style=&quot;font-size: 101px;&quot; color=&quot;#000000&quot;&gt;Pr&lt;/font&gt;" style="whiteSpace=wrap;html=1;aspect=fixed;fontSize=101;sketch=1;fillColor=#d80073;strokeColor=#A50040;strokeWidth=4;fontColor=#ffffff;" vertex="1" parent="tsy0d7PEiLZ8QUkQVtpS-1">
                    <mxGeometry x="40" y="40" width="200" height="200" as="geometry"/>
                </mxCell>
            </root>
        </mxGraphModel>
    </diagram>
    <diagram id="gK25cWVyLiFdA5VOyG0V" name="babel-ast-explorer">
        <mxGraphModel dx="529" dy="321" grid="1" gridSize="10" guides="1" tooltips="1" connect="1" arrows="1" fold="1" page="1" pageScale="1" pageWidth="850" pageHeight="1100" math="0" shadow="0">
            <root>
                <mxCell id="N7NvBWY_9ABcpjGPKElr-0"/>
                <mxCell id="N7NvBWY_9ABcpjGPKElr-1" parent="N7NvBWY_9ABcpjGPKElr-0"/>
                <mxCell id="CD8UvJ2IlrJxbFtU0Y78-0" value="" style="whiteSpace=wrap;html=1;aspect=fixed;fontSize=86;sketch=1;fillColor=#0050ef;strokeColor=#001DBC;strokeWidth=4;fontColor=#00CC66;" vertex="1" parent="N7NvBWY_9ABcpjGPKElr-1">
                    <mxGeometry x="40" y="40" width="200" height="200" as="geometry"/>
                </mxCell>
                <mxCell id="CD8UvJ2IlrJxbFtU0Y78-2" value="" style="ellipse;whiteSpace=wrap;html=1;aspect=fixed;fontSize=86;sketch=0;fillColor=#e51400;strokeColor=#B20000;fontColor=#ffffff;" vertex="1" parent="N7NvBWY_9ABcpjGPKElr-1">
                    <mxGeometry x="119.46153846153847" y="69" width="28.230769230769234" height="28.230769230769234" as="geometry"/>
                </mxCell>
                <mxCell id="CD8UvJ2IlrJxbFtU0Y78-3" value="" style="ellipse;whiteSpace=wrap;html=1;aspect=fixed;fontSize=86;sketch=0;fillColor=#e51400;strokeColor=#B20000;fontColor=#ffffff;" vertex="1" parent="N7NvBWY_9ABcpjGPKElr-1">
                    <mxGeometry x="91.23076923076923" y="111" width="28.230769230769234" height="28.230769230769234" as="geometry"/>
                </mxCell>
                <mxCell id="CD8UvJ2IlrJxbFtU0Y78-9" style="rounded=0;orthogonalLoop=1;jettySize=auto;html=1;fontSize=86;fontColor=#00CC66;sketch=1;" edge="1" parent="N7NvBWY_9ABcpjGPKElr-1" source="CD8UvJ2IlrJxbFtU0Y78-2" target="CD8UvJ2IlrJxbFtU0Y78-3">
                    <mxGeometry x="63" y="69" as="geometry"/>
                </mxCell>
                <mxCell id="CD8UvJ2IlrJxbFtU0Y78-4" value="" style="ellipse;whiteSpace=wrap;html=1;aspect=fixed;fontSize=86;sketch=0;fillColor=#e51400;strokeColor=#B20000;fontColor=#ffffff;" vertex="1" parent="N7NvBWY_9ABcpjGPKElr-1">
                    <mxGeometry x="147.6923076923077" y="111" width="28.230769230769234" height="28.230769230769234" as="geometry"/>
                </mxCell>
                <mxCell id="CD8UvJ2IlrJxbFtU0Y78-10" style="edgeStyle=none;rounded=0;orthogonalLoop=1;jettySize=auto;html=1;fontSize=86;fontColor=#00CC66;sketch=1;" edge="1" parent="N7NvBWY_9ABcpjGPKElr-1" source="CD8UvJ2IlrJxbFtU0Y78-2" target="CD8UvJ2IlrJxbFtU0Y78-4">
                    <mxGeometry x="63" y="69" as="geometry"/>
                </mxCell>
                <mxCell id="CD8UvJ2IlrJxbFtU0Y78-6" value="" style="ellipse;whiteSpace=wrap;html=1;aspect=fixed;fontSize=86;sketch=0;fillColor=#e51400;strokeColor=#B20000;fontColor=#ffffff;" vertex="1" parent="N7NvBWY_9ABcpjGPKElr-1">
                    <mxGeometry x="63" y="153" width="28.230769230769234" height="28.230769230769234" as="geometry"/>
                </mxCell>
                <mxCell id="CD8UvJ2IlrJxbFtU0Y78-11" style="edgeStyle=none;rounded=0;orthogonalLoop=1;jettySize=auto;html=1;fontSize=86;fontColor=#00CC66;sketch=1;" edge="1" parent="N7NvBWY_9ABcpjGPKElr-1" source="CD8UvJ2IlrJxbFtU0Y78-3" target="CD8UvJ2IlrJxbFtU0Y78-6">
                    <mxGeometry x="63" y="69" as="geometry"/>
                </mxCell>
                <mxCell id="CD8UvJ2IlrJxbFtU0Y78-7" value="" style="ellipse;whiteSpace=wrap;html=1;aspect=fixed;fontSize=86;sketch=0;fillColor=#e51400;strokeColor=#B20000;fontColor=#ffffff;" vertex="1" parent="N7NvBWY_9ABcpjGPKElr-1">
                    <mxGeometry x="108.16923076923078" y="153" width="28.230769230769234" height="28.230769230769234" as="geometry"/>
                </mxCell>
                <mxCell id="CD8UvJ2IlrJxbFtU0Y78-12" style="edgeStyle=none;rounded=0;orthogonalLoop=1;jettySize=auto;html=1;entryX=0;entryY=0;entryDx=0;entryDy=0;fontSize=86;fontColor=#00CC66;sketch=1;" edge="1" parent="N7NvBWY_9ABcpjGPKElr-1" source="CD8UvJ2IlrJxbFtU0Y78-3" target="CD8UvJ2IlrJxbFtU0Y78-7">
                    <mxGeometry x="63" y="69" as="geometry"/>
                </mxCell>
                <mxCell id="CD8UvJ2IlrJxbFtU0Y78-8" value="" style="ellipse;whiteSpace=wrap;html=1;aspect=fixed;fontSize=86;sketch=0;fillColor=#e51400;strokeColor=#B20000;fontColor=#ffffff;" vertex="1" parent="N7NvBWY_9ABcpjGPKElr-1">
                    <mxGeometry x="142.04615384615386" y="189" width="28.230769230769234" height="28.230769230769234" as="geometry"/>
                </mxCell>
                <mxCell id="CD8UvJ2IlrJxbFtU0Y78-13" style="edgeStyle=none;rounded=0;orthogonalLoop=1;jettySize=auto;html=1;fontSize=86;fontColor=#00CC66;sketch=1;" edge="1" parent="N7NvBWY_9ABcpjGPKElr-1" source="CD8UvJ2IlrJxbFtU0Y78-7" target="CD8UvJ2IlrJxbFtU0Y78-8">
                    <mxGeometry x="63" y="69" as="geometry"/>
                </mxCell>
                <mxCell id="CD8UvJ2IlrJxbFtU0Y78-14" value="" style="ellipse;whiteSpace=wrap;html=1;aspect=fixed;fontSize=86;sketch=0;fillColor=#e51400;strokeColor=#B20000;fontColor=#ffffff;" vertex="1" parent="N7NvBWY_9ABcpjGPKElr-1">
                    <mxGeometry x="181.56923076923078" y="153" width="28.230769230769234" height="28.230769230769234" as="geometry"/>
                </mxCell>
                <mxCell id="CD8UvJ2IlrJxbFtU0Y78-15" style="edgeStyle=none;rounded=0;orthogonalLoop=1;jettySize=auto;html=1;fontSize=86;fontColor=#00CC66;sketch=1;" edge="1" parent="N7NvBWY_9ABcpjGPKElr-1" source="CD8UvJ2IlrJxbFtU0Y78-4" target="CD8UvJ2IlrJxbFtU0Y78-14">
                    <mxGeometry x="63" y="69" as="geometry"/>
                </mxCell>
            </root>
        </mxGraphModel>
    </diagram>
</mxfile>